#N canvas 708 449 714 323 10;
#X declare -lib mrpeach;
#X obj 94 41 import mrpeach;
#X obj 103 142 unpackOSC;
#X obj 40 198 print;
#X obj 104 106 udpreceive 9001;
#X obj 103 190 routeOSC /Score;
#X obj 104 236 nbx 5 14 -1e+037 1e+037 0 0 empty empty empty 0 -8 0
10 -262144 -1 -1 0 256;
#X connect 1 0 2 0;
#X connect 1 0 4 0;
#X connect 3 0 1 0;
#X connect 4 0 5 0;
